<svg width="25" height="21" viewBox="0 0 25 21" fill="none" xmlns="http://www.w3.org/2000/svg">
<path fill-rule="evenodd" clip-rule="evenodd" d="M24.8946 2.68753C23.9947 3.07636 23.0172 3.35631 22.0087 3.46518C23.0482 2.84306 23.8395 1.86323 24.2119 0.696757C23.2499 1.27222 22.1638 1.69215 21.0312 1.90989C20.1158 0.930051 18.8125 0.323486 17.3695 0.323486C14.5922 0.323486 12.358 2.57866 12.358 5.34709C12.358 5.73591 12.4045 6.12474 12.4821 6.49801C8.32389 6.28027 4.61566 4.28949 2.14867 1.24111C1.71424 1.98765 1.46599 2.84306 1.46599 3.77624C1.46599 5.51817 2.35038 7.05791 3.70024 7.95999C2.87791 7.92888 2.10213 7.69558 1.43496 7.32231V7.38453C1.43496 9.82634 3.15719 11.8482 5.4535 12.3148C5.03458 12.4237 4.58463 12.4859 4.13467 12.4859C3.80885 12.4859 3.49853 12.4548 3.18822 12.4081C3.82436 14.3989 5.67072 15.8453 7.87394 15.892C6.15171 17.2451 3.99503 18.0383 1.65217 18.0383C1.23325 18.0383 0.845362 18.0227 0.441956 17.9761C2.66069 19.407 5.29835 20.2313 8.13771 20.2313C17.354 20.2313 22.3966 12.5792 22.3966 5.9381C22.3966 5.72036 22.3966 5.50262 22.3811 5.28488C23.3585 4.56944 24.2119 3.68292 24.8946 2.68753Z" fill="white"/>
</svg>
